<?xml version="1.0" encoding="utf-8"?>
<svg viewBox="-171.184 -259.427 708.826 327.63" xmlns="http://www.w3.org/2000/svg">
  <defs>
    <style>
      .light {
        fill: #ffdf53;
      }

      .lighthouse {
        fill: #000;
      }
      .text {
        fill: #5c5c5c;
      }
      
    </style>
  </defs>
  <rect x="-172.606" y="-259.427" width="710.248" height="327.63" style="fill: rgb(79, 79, 79);"/>
  <g transform="matrix(1, 0, 0, 1, -52.905193, 4.874879)" class="aa7KPHPJj5xkcolor980a3da0-e392-4fd4-ba50-dbb893c2f181" opacity="1"/>
  <g>
    <g transform="matrix(1, 0, 0, 1, -48.643543, -278.745575)">
      <g opacity="1" transform="rotate(0 204.5455 77.2072)">
        <svg x="204.5455" y="77.2072" width="113.9999" height="157.2104" viewBox="18.299999237060547 5.900000095367432 63.89999771118164 88.12060546875" preserveAspectRatio="none">
          <g class="aIptOCySncolors-0980a3da0-e392-4fd4-ba50-dbb893c2f181" transform="matrix(1 0 0 1 0 0)">
            <g class="lighthouse">
              <polygon points="58.2,66 40.9,73.4 41.7,64.7 57.7,57.9  " style="fill: rgb(159, 159, 159);"/>
              <path d="M59.5,84.9c-2,0.3-4,0.9-5.6,2.1c-2,1.5-3.2,3.8-5.2,5.3c-2.8,2-6.5,1.8-9.9,1.6l1.1-11l18.9-8L59.5,84.9z" style="fill: rgb(159, 159, 159);"/>
              <path d="M57.7,41.3h-1v-6.8h1c0.7,0,1.1-0.7,0.7-1.3l-3.3-2.4l-2.8-4.1c-1-1.4-3.1-1.4-4.1,0l-2.9,4.1L42,33.2   c-0.4,0.6,0,1.3,0.7,1.3h1v6.8h-1c-0.7,0-1.1,0.8-0.7,1.3l1.6,2.4l-1,10.2l14.4-6.1L56.8,45l1.6-2.4C58.8,42,58.4,41.3,57.7,41.3z    M53.7,41.3h-7v-6.8h7V41.3z" style="fill: rgb(159, 159, 159);"/>
            </g>
            <g class="light">
              <path d="M50.2,20c-0.6,0-1-0.4-1-1V6.9c0-0.6,0.4-1,1-1s1,0.4,1,1V19C51.2,19.6,50.8,20,50.2,20z" style="fill: rgba(255, 223, 83, 0.63);"/>
              <path d="M31.4,38.9H19.3c-0.6,0-1-0.4-1-1s0.4-1,1-1h12.1c0.6,0,1,0.4,1,1S31.9,38.9,31.4,38.9z" style="fill: rgba(255, 223, 83, 0.63);"/>
              <path d="M36.3,25.1c-0.3,0-0.5-0.1-0.7-0.3L27,16.3c-0.4-0.4-0.4-1,0-1.4s1-0.4,1.4,0l8.6,8.6c0.4,0.4,0.4,1,0,1.4  C36.8,25,36.5,25.1,36.3,25.1z" style="fill: rgba(255, 223, 83, 0.63);"/>
              <path d="M81.2,38.9H69.1c-0.6,0-1-0.4-1-1s0.4-1,1-1h12.1c0.6,0,1,0.4,1,1S81.8,38.9,81.2,38.9z" style="fill: rgba(255, 223, 83, 0.63);"/>
              <path d="M64.2,25.1c-0.3,0-0.5-0.1-0.7-0.3c-0.4-0.4-0.4-1,0-1.4l8.6-8.6c0.4-0.4,1-0.4,1.4,0s0.4,1,0,1.4l-8.6,8.6  C64.7,25,64.5,25.1,64.2,25.1z" style="fill: rgba(255, 223, 83, 0.63);"/>
              <path d="M27.7,61.2c-0.3,0-0.5-0.1-0.7-0.3c-0.4-0.4-0.4-1,0-1.4l8.6-8.6c0.4-0.4,1-0.4,1.4,0s0.4,1,0,1.4l-8.6,8.6  C28.2,61.1,28,61.2,27.7,61.2z" style="fill: rgba(255, 223, 83, 0.63);"/>
              <path d="M72.8,61.2c-0.3,0-0.5-0.1-0.7-0.3l-8.6-8.6c-0.4-0.4-0.4-1,0-1.4s1-0.4,1.4,0l8.6,8.6c0.4,0.4,0.4,1,0,1.4  C73.3,61.1,73,61.2,72.8,61.2z" style="fill: rgba(255, 223, 83, 0.63);"/>
              <path d="M33,31.3c-0.1,0-0.3,0-0.4-0.1l-7.1-3.1c-0.5-0.2-0.7-0.8-0.5-1.3c0.2-0.5,0.8-0.7,1.3-0.5l7.1,3.1c0.5,0.2,0.7,0.8,0.5,1.3  C33.7,31.1,33.4,31.3,33,31.3z" style="fill: rgba(255, 223, 83, 0.63);"/>
              <path d="M43,20.7c-0.4,0-0.8-0.2-0.9-0.6l-2.5-6.5c-0.2-0.5,0.1-1.1,0.6-1.3c0.5-0.2,1.1,0.1,1.3,0.6l2.5,6.5  c0.2,0.5-0.1,1.1-0.6,1.3C43.2,20.6,43.1,20.7,43,20.7z" style="fill: rgba(255, 223, 83, 0.63);"/>
              <path d="M57.4,20.7c-0.1,0-0.2,0-0.4-0.1c-0.5-0.2-0.8-0.8-0.6-1.3l2.5-6.5c0.2-0.5,0.8-0.8,1.3-0.6c0.5,0.2,0.8,0.8,0.6,1.3  L58.4,20C58.2,20.4,57.8,20.7,57.4,20.7z" style="fill: rgba(255, 223, 83, 0.63);"/>
              <path d="M74.5,49.5c-0.1,0-0.3,0-0.4-0.1l-7-3.1c-0.5-0.2-0.7-0.8-0.5-1.3c0.2-0.5,0.8-0.7,1.3-0.5l7,3.1c0.5,0.2,0.7,0.8,0.5,1.3  C75.3,49.3,74.9,49.5,74.5,49.5z" style="fill: rgba(255, 223, 83, 0.63);"/>
              <path d="M68.6,31.9c-0.4,0-0.8-0.2-0.9-0.6c-0.2-0.5,0.1-1.1,0.6-1.3l6.4-2.5c0.5-0.2,1.1,0.1,1.3,0.6s-0.1,1.1-0.6,1.3l-6.4,2.5  C68.8,31.9,68.7,31.9,68.6,31.9z" style="fill: rgba(255, 223, 83, 0.63);"/>
              <path d="M25.4,48.4c-0.4,0-0.8-0.2-0.9-0.6c-0.2-0.5,0.1-1.1,0.6-1.3l6.5-2.5c0.5-0.2,1.1,0.1,1.3,0.6s-0.1,1.1-0.6,1.3l-6.5,2.5  C25.7,48.4,25.6,48.4,25.4,48.4z" style="fill: rgba(255, 223, 83, 0.63);"/>
            </g>
          </g>
        </svg>
      </g>
    </g>
    <g transform="matrix(1, 0, 0, 1, -48.643543, -278.745575)">
      <g opacity="1" transform="rotate(0 71.5454 260.7268)">
        <svg x="71.5454" y="260.7268" width="380" height="28.333" viewBox="1.8 -25.44 341.2 25.44" preserveAspectRatio="none">
          <g transform="matrix(1 0 0 1 0 0)" class="text">
            <path id="id-980a3da0-e392-4fd4-ba50-dbb893c2f181D6z1nYkh19" d="M7.48-25.44L7.48-4.20L14.80-4.20L14.80 0L1.80 0L1.80-25.44L7.48-25.44Z M17.56 0L17.56-25.44L23.24-25.44L23.24 0L17.56 0Z M42.80-21.04L42.80-17.20L37.08-17.20L37.08-20.52Q37.08-21.52 36-21.52L36-21.52L34.36-21.52Q33.28-21.52 33.28-20.52L33.28-20.52L33.28-4.92Q33.28-4.36 33.52-4.14Q33.76-3.92 34.36-3.92L34.36-3.92L36-3.92Q36.60-3.92 36.84-4.14Q37.08-4.36 37.08-4.92L37.08-4.92L37.08-9.88L35.08-9.88L35.08-13.68L42.80-13.68L42.80-4.40Q42.80 0 37.76 0L37.76 0L32.60 0Q27.56 0 27.56-4.40L27.56-4.40L27.56-21.04Q27.56-25.44 32.60-25.44L32.60-25.44L37.76-25.44Q42.80-25.44 42.80-21.04L42.80-21.04Z M57.56-14.68L57.56-25.44L63.20-25.44L63.20 0L57.56 0L57.56-10.48L52.44-10.48L52.44 0L46.80 0L46.80-25.44L52.44-25.44L52.44-14.68L57.56-14.68Z M66-25.44L81.04-25.44L81.04-21.24L76.36-21.24L76.36 0L70.64 0L70.64-21.24L66-21.24L66-25.44Z M94.60-14.68L94.60-25.44L100.24-25.44L100.24 0L94.60 0L94.60-10.48L89.48-10.48L89.48 0L83.84 0L83.84-25.44L89.48-25.44L89.48-14.68L94.60-14.68Z M109.56-25.44L109.56-25.44L114.92-25.44Q119.96-25.44 119.96-21.04L119.96-21.04L119.96-4.44Q119.96 0 114.92 0L114.92 0L109.56 0Q104.48 0 104.48-4.44L104.48-4.44L104.48-21.04Q104.48-25.44 109.56-25.44ZM114.24-5.20L114.24-5.20L114.24-20.24Q114.24-21.24 113.20-21.24L113.20-21.24L111.28-21.24Q110.20-21.24 110.20-20.24L110.20-20.24L110.20-5.20Q110.20-4.20 111.28-4.20L111.28-4.20L113.20-4.20Q114.24-4.20 114.24-5.20Z M133.92-5.20L133.92-25.44L139.64-25.44L139.64-4.44Q139.64 0 134.56 0L134.56 0L129.20 0Q124.16 0 124.16-4.44L124.16-4.44L124.16-25.44L129.88-25.44L129.88-5.20Q129.88-4.20 130.92-4.20L130.92-4.20L132.84-4.20Q133.92-4.20 133.92-5.20L133.92-5.20Z M152.84-5.20L152.84-5.20L152.84-9.80Q152.84-10.32 152.60-10.54Q152.36-10.76 151.76-10.76L151.76-10.76L148.24-10.76Q143.52-10.76 143.52-15.24L143.52-15.24L143.52-21.04Q143.52-25.44 148.56-25.44L148.56-25.44L153.44-25.44Q158.48-25.44 158.48-21.04L158.48-21.04L158.48-17.72L152.76-17.72L152.76-20.24Q152.76-21.24 151.68-21.24L151.68-21.24L150.32-21.24Q149.24-21.24 149.24-20.24L149.24-20.24L149.24-15.76Q149.24-15.24 149.48-15.02Q149.72-14.80 150.32-14.80L150.32-14.80L153.76-14.80Q156.32-14.80 157.44-13.70Q158.56-12.60 158.56-10.44L158.56-10.44L158.56-4.44Q158.56 0 153.52 0L153.52 0L148.68 0Q143.60 0 143.60-4.44L143.60-4.44L143.60-7.72L149.32-7.72L149.32-5.20Q149.32-4.20 150.40-4.20L150.40-4.20L151.76-4.20Q152.84-4.20 152.84-5.20Z M168.20-10.84L168.20-4.20L176.36-4.20L176.36 0L162.48 0L162.48-25.44L176.04-25.44L176.04-21.24L168.20-21.24L168.20-15.04L174.88-15.04L174.88-10.84L168.20-10.84Z M196.44-5.20L196.44-5.20L196.44-9.80Q196.44-10.32 196.20-10.54Q195.96-10.76 195.36-10.76L195.36-10.76L191.84-10.76Q187.12-10.76 187.12-15.24L187.12-15.24L187.12-21.04Q187.12-25.44 192.16-25.44L192.16-25.44L197.04-25.44Q202.08-25.44 202.08-21.04L202.08-21.04L202.08-17.72L196.36-17.72L196.36-20.24Q196.36-21.24 195.28-21.24L195.28-21.24L193.92-21.24Q192.84-21.24 192.84-20.24L192.84-20.24L192.84-15.76Q192.84-15.24 193.08-15.02Q193.32-14.80 193.92-14.80L193.92-14.80L197.36-14.80Q199.92-14.80 201.04-13.70Q202.16-12.60 202.16-10.44L202.16-10.44L202.16-4.44Q202.16 0 197.12 0L197.12 0L192.28 0Q187.20 0 187.20-4.44L187.20-4.44L187.20-7.72L192.92-7.72L192.92-5.20Q192.92-4.20 194.00-4.20L194.00-4.20L195.36-4.20Q196.44-4.20 196.44-5.20Z M211.00-25.44L211.00-25.44L216.36-25.44Q221.40-25.44 221.40-21.04L221.40-21.04L221.40-4.44Q221.40 0 216.36 0L216.36 0L211.00 0Q205.92 0 205.92-4.44L205.92-4.44L205.92-21.04Q205.92-25.44 211.00-25.44ZM215.68-5.20L215.68-5.20L215.68-20.24Q215.68-21.24 214.64-21.24L214.64-21.24L212.72-21.24Q211.64-21.24 211.64-20.24L211.64-20.24L211.64-5.20Q211.64-4.20 212.72-4.20L212.72-4.20L214.64-4.20Q215.68-4.20 215.68-5.20Z M239.32-25.44L239.32-21.24L231.36-21.24L231.36-14.24L238.04-14.24L238.04-10.28L231.36-10.28L231.36 0L225.64 0L225.64-25.44L239.32-25.44Z M240.80-25.44L255.84-25.44L255.84-21.24L251.16-21.24L251.16 0L245.44 0L245.44-21.24L240.80-21.24L240.80-25.44Z M278.08-6.44L280.76-25.44L286.44-25.44L281.52 0L274.68 0L271.84-16.64L269.00 0L262.16 0L257.24-25.44L263.16-25.44L265.56-6.44L268.92-25.44L274.72-25.44L278.08-6.44Z M306.80 0L301.04 0L300.16-4.60L294.36-4.60L293.48 0L287.84 0L293.60-25.44L300.88-25.44L306.80 0ZM297.24-19.52L295.16-8.76L299.32-8.76L297.24-19.52Z M316.24-9.52L315.24-9.52L315.24 0L309.56 0L309.56-25.44L320.04-25.44Q325.08-25.44 325.08-21.04L325.08-21.04L325.08-13.92Q325.08-10.40 321.88-9.68L321.88-9.68L326.36 0L320.24 0L316.24-9.52ZM318.32-21.24L315.24-21.24L315.24-13.56L318.32-13.56Q318.88-13.56 319.12-13.78Q319.36-14 319.36-14.52L319.36-14.52L319.36-20.24Q319.36-21.24 318.32-21.24L318.32-21.24Z M334.84-10.84L334.84-4.20L343.00-4.20L343.00 0L329.12 0L329.12-25.44L342.68-25.44L342.68-21.24L334.84-21.24L334.84-15.04L341.52-15.04L341.52-10.84L334.84-10.84Z" style="fill: rgb(255, 223, 83);"/>
          </g>
        </svg>
      </g>
    </g>
  </g>
</svg>